<svg xmlns="http://www.w3.org/2000/svg" version="1.1" xmlns:xlink="http://www.w3.org/1999/xlink" viewBox="0 0 23.18311184286225 13.004647751953511"><g transform="matrix(0.8117608478061284,0,0,0.8117608478061284,3.4059765929618795,8.455928280529559)"><rect width="26.19875847576356" height="26.19875847576356" x="-3.015646632901314" y="-15.506004797407877" fill="#ffffff"></rect><g transform="matrix(1,0,0,1,0,0)" clip-path="url(#SvgjsClipPath79933)"><g clip-path="url(#SvgjsClipPath799287588361c-b933-406d-86ff-d58506cfd605)"><path d=" M 9.594098358307932 -5.790446820746362 C 9.613063848833956 -5.790457116968382 9.631828531843947 -5.794330120097865 9.649248249776896 -5.8018296776875795 L 10.568870169460109 -6.196247183037832 C 10.639612522708996 -6.226961318358073 10.672222357728309 -6.3090793262990355 10.641823330456836 -6.379957657209186 C 10.611424303185363 -6.450835988119335 10.529452222302439 -6.483810925934321 10.45843931731028 -6.453727608693117 L 9.538807315379998 -6.059310103342865 C 9.477755361618478 -6.033024891335565 9.44356643900557 -5.96746811556462 9.456955623656375 -5.902360641625341 C 9.47034480830718 -5.837253167686061 9.527628442196587 -5.790507488021117 9.594098358307932 -5.790446820746362 Z" fill="#f7931e" transform="matrix(1,0,0,1,0,0)" fill-rule="nonzero"></path></g><g clip-path="url(#SvgjsClipPath799287588361c-b933-406d-86ff-d58506cfd605)"><path d=" M 9.64132360358044 -6.331682007919477 C 9.660289180683286 -6.331691458549248 9.67905403241024 -6.335564496501667 9.696473495049405 -6.343064864860694 L 10.14117116653416 -6.533780650423204 C 10.192645918819089 -6.555877140761425 10.226017763727379 -6.606503859026124 10.226033440116293 -6.662520863250847 L 10.226033440116293 -7.261043378271614 C 10.226033440116295 -7.33840893971923 10.163316260783327 -7.401126119052197 10.085950699335712 -7.401126119052197 C 10.008585137888094 -7.401126119052197 9.945867958555128 -7.33840893971923 9.945867958555128 -7.261043378271614 L 9.945867958555128 -6.754854081911318 L 9.586042642899576 -6.60054529051598 C 9.52499241533284 -6.574260834163147 9.490803450762566 -6.508706867947212 9.504189913456665 -6.44360075803229 C 9.517576376150764 -6.378494648117369 9.574855576306238 -6.331747444836569 9.64132360358044 -6.331682007919477 Z" fill="#f7931e" transform="matrix(1,0,0,1,0,0)" fill-rule="nonzero"></path></g><g clip-path="url(#SvgjsClipPath799287588361c-b933-406d-86ff-d58506cfd605)"><path d=" M 10.083732604980469 -1.7950640343789583 C 10.054460565872366 -1.7950640343789592 10.026387433277247 -1.7834357621197618 10.00568897592475 -1.7627373047672643 C 9.984990518572252 -1.7420388474147677 9.973362246313055 -1.7139657148196488 9.973362246313055 -1.6846936757115456 L 9.973362246313055 -0.3603602764203444 C 9.973362246313055 -0.2994044104949767 10.022776739055102 -0.2499899177529299 10.083732604980469 -0.2499899177529299 C 10.144688470905836 -0.2499899177529299 10.194102963647882 -0.2994044104949767 10.194102963647882 -0.3603602764203444 L 10.194102963647882 -1.6846936757115438 C 10.194102963647882 -1.7139657148196488 10.182474691388686 -1.7420388474147677 10.16177623403619 -1.7627373047672643 C 10.14107777668369 -1.7834357621197618 10.113004644088573 -1.7950640343789592 10.083732604980469 -1.7950640343789592 Z" fill="#f7931e" transform="matrix(1,0,0,1,0,0)" fill-rule="nonzero"></path></g><g clip-path="url(#SvgjsClipPath799287588361c-b933-406d-86ff-d58506cfd605)"><path d=" M 8.193875885326257 -3.68492075403317 C 8.193875885326257 -3.7141927931412733 8.18224761306706 -3.742265925736392 8.161549155714562 -3.7629643830888897 C 8.140850698362065 -3.7836628404413872 8.112777565766947 -3.7952911127005837 8.083505526658843 -3.7952911127005837 L 6.759172127367643 -3.7952911127005837 C 6.698216261442275 -3.7952911127005837 6.648801768700229 -3.7458766199585374 6.648801768700229 -3.68492075403317 C 6.648801768700229 -3.6239648881078033 6.698216261442275 -3.574550395365757 6.759172127367643 -3.574550395365757 L 8.083505526658843 -3.574550395365757 C 8.112777565766947 -3.574550395365757 8.140850698362065 -3.5861786676249534 8.161549155714562 -3.606877124977451 C 8.18224761306706 -3.627575582329948 8.193875885326257 -3.6556487149250674 8.193875885326257 -3.68492075403317 Z" fill="#f7931e" transform="matrix(1,0,0,1,0,0)" fill-rule="nonzero"></path></g><g clip-path="url(#SvgjsClipPath799287588361c-b933-406d-86ff-d58506cfd605)"><path d=" M 13.408293082593294 -3.7952911127005837 L 12.083959683302094 -3.7952911127005837 C 12.023003817376729 -3.7952911127005837 11.97358932463468 -3.7458766199585374 11.97358932463468 -3.68492075403317 C 11.97358932463468 -3.6239648881078033 12.023003817376729 -3.574550395365757 12.083959683302094 -3.574550395365757 L 13.408293082593294 -3.574550395365757 C 13.469248948518661 -3.574550395365757 13.518663441260708 -3.6239648881078033 13.518663441260708 -3.68492075403317 C 13.518663441260708 -3.7458766199585374 13.469248948518661 -3.7952911127005837 13.408293082593294 -3.7952911127005837 Z" fill="#f7931e" transform="matrix(1,0,0,1,0,0)" fill-rule="nonzero"></path></g><g clip-path="url(#SvgjsClipPath799287588361c-b933-406d-86ff-d58506cfd605)"><path d=" M 8.591318064797294 -2.348589480729526 L 7.6548688747554525 -1.4121402906876845 C 7.612292139178288 -1.3689501993828488 7.612540478642711 -1.299497647735608 7.655424988662809 -1.2566131377155108 C 7.6983094986829075 -1.2137286276954118 7.76776205033015 -1.213480288230989 7.810952141634984 -1.2560570238081539 L 8.747401331676825 -2.1925062138499944 C 8.78997806725399 -2.23569630515483 8.789729727789567 -2.305148856802071 8.746845217769469 -2.3480333668221682 C 8.70396070774937 -2.390917876842267 8.634508156102129 -2.39116621630669 8.591318064797294 -2.348589480729526 Z" fill="#f7931e" transform="matrix(1,0,0,1,0,0)" fill-rule="nonzero"></path></g><g clip-path="url(#SvgjsClipPath799287588361c-b933-406d-86ff-d58506cfd605)"><path d=" M 11.498110552847415 -4.9889283432327005 C 11.527388451268639 -4.988895400376872 11.555472350982214 -5.000531713862845 11.576147145163645 -5.021262109583883 L 12.512596335205487 -5.957701217378656 C 12.55517307078265 -6.00089130868349 12.554924731318227 -6.070343860330732 12.512040221298129 -6.11322837035083 C 12.469155711278031 -6.1561128803709275 12.39970315963079 -6.156361219835351 12.356513068325956 -6.113784484258186 L 11.420063878284115 -5.177345376463414 C 11.388505947283406 -5.14577599031391 11.379068447185553 -5.098306962431368 11.396150909686098 -5.057067192477847 C 11.413233372186644 -5.0158274225243265 11.453472798687292 -4.988935721739334 11.498110552847415 -4.9889283432327005 Z" fill="#f7931e" transform="matrix(1,0,0,1,0,0)" fill-rule="nonzero"></path></g><g clip-path="url(#SvgjsClipPath799287588361c-b933-406d-86ff-d58506cfd605)"><path d=" M 8.591318064797294 -5.021262109583883 C 8.634508156102129 -4.978685374006719 8.70396070774937 -4.978933713471143 8.746845217769469 -5.021818223491241 C 8.789729727789567 -5.064702733511339 8.78997806725399 -5.134155285158581 8.747401331676825 -5.177345376463415 L 7.810952141634983 -6.113784484258187 C 7.767762050330149 -6.156361219835352 7.6983094986829075 -6.156112880370928 7.655424988662809 -6.11322837035083 C 7.612540478642711 -6.070343860330732 7.612292139178288 -6.00089130868349 7.6548688747554525 -5.957701217378655 Z" fill="#f7931e" transform="matrix(1,0,0,1,0,0)" fill-rule="nonzero"></path></g><g clip-path="url(#SvgjsClipPath799287588361c-b933-406d-86ff-d58506cfd605)"><path d=" M 11.576147145163645 -2.348589480729526 C 11.532957053858812 -2.3911662163067096 11.463504502211554 -2.3909178768422947 11.42061999219145 -2.3480333668221887 C 11.377735482171344 -2.3051488568020826 11.37748714270693 -2.235696305154825 11.420063878284115 -2.1925062138499944 L 12.356513068325956 -1.2560570238081539 C 12.399614272527451 -1.2129446842522649 12.469504158580431 -1.2129356568130234 12.512616498692532 -1.2560368604581633 C 12.555728838804633 -1.299138064103306 12.555737867145787 -1.3690279501561688 12.512636664057002 -1.4121402908244818 Z" fill="#f7931e" transform="matrix(1,0,0,1,0,0)" fill-rule="nonzero"></path></g><g clip-path="url(#SvgjsClipPath799287588361c-b933-406d-86ff-d58506cfd605)"><path d=" M 12.475433172508119 -2.849999791978984 L 11.538994064713346 -3.2234361411780634 L 11.538731926289543 -3.2235470458958257 C 11.52487217921938 -3.229406380282062 11.51750461662272 -3.244633251456655 11.521511448295213 -3.2591373780503856 C 11.605320525086482 -3.548847255219009 11.600051136103318 -3.857067868548264 11.506388077691293 -4.143743653661986 C 11.501205380295442 -4.160405693252436 11.509716933213603 -4.178250089282616 11.525927472511558 -4.184707823504473 L 11.526229939923635 -4.184838892716373 L 12.452465813684295 -4.582946500493983 C 12.508046175118224 -4.607274023318787 12.533569475129259 -4.671902315622672 12.509609696745269 -4.727642193302012 C 12.485649918361279 -4.783382070981351 12.421191666318485 -4.8093318061082755 12.365294705523295 -4.78574081804549 L 11.439068914009706 -4.3876332102678814 L 11.438756364350557 -4.387502141055981 C 11.422193162782028 -4.379959589299873 11.402612856939893 -4.386350566083692 11.393688719950873 -4.40221213953006 C 11.3867655769633 -4.414801505370569 11.379640789034344 -4.427293409489407 11.372314356163999 -4.4396878518865766 C 11.328960693766092 -4.512763978644721 11.278206662019334 -4.585880434391143 11.229146447780217 -4.656657808817492 C 11.163279127676606 -4.7516023294689065 11.095173548723617 -4.849773169182491 11.048885952428549 -4.942771816149534 L 10.790225903866158 -5.4624814058297355 C 10.756964283207266 -5.529304605014997 10.677144881153303 -5.558305654427937 10.60874545661911 -5.528419301662829 L 9.711606947900393 -5.136350959879719 C 9.640695013822967 -5.105374665939985 9.608320780546258 -5.022777937818006 9.639297073738813 -4.951866003414191 C 9.670273366931369 -4.880954069010375 9.752870094712229 -4.848579834863368 9.823782029442434 -4.879556127308744 L 10.598804361008801 -5.218259135070555 L 10.798079974333131 -4.817862857208219 C 10.85342142849641 -4.706685918775263 10.927404957490792 -4.600035909276414 10.998968747188545 -4.496894521757675 C 11.047363533121091 -4.427095125297046 11.093126852568556 -4.361167311711021 11.131399062443544 -4.296661094961764 C 11.35454488109263 -3.9194344999079953 11.357191438378273 -3.4512550862136178 11.138324569898174 -3.071529850973522 C 10.919457701418075 -2.6918046157334254 10.51301631970476 -2.459416210464039 10.07474932284174 -2.463416192601562 C 9.409976362328731 -2.4694050473607136 8.870142607498245 -3.015318397173976 8.871372641640699 -3.6803434138637168 C 8.871648303381821 -3.895062224948703 8.928893961587587 -4.105862907499297 9.037265934918635 -4.291226763791414 C 9.074459344357216 -4.354684426845473 9.12036381526365 -4.419714920442333 9.168950163890512 -4.4885665856784485 C 9.237237223290748 -4.585356157543542 9.30785328176399 -4.685402295212012 9.360210390794762 -4.790570214391677 L 9.609584689806347 -5.291587318005432 L 10.707622053627546 -5.762518996364454 L 10.597181119230648 -6.0199994220197395 L 9.45188826339573 -5.528792344804394 C 9.421369026696723 -5.515704538118866 9.396492114659257 -5.492199751077432 9.3816956592994 -5.462471323582667 L 9.109394330452272 -4.915408597603507 C 9.066595191643177 -4.8294271945966845 9.002260373094098 -4.738273598843319 8.94001257968836 -4.650104348222461 C 8.890206279166115 -4.5795286187374975 8.83870616113623 -4.506563396697114 8.79553397918557 -4.432902499608951 C 8.783031992819662 -4.411568464810354 8.771121498281818 -4.389942044846747 8.75980249557204 -4.368023239718131 C 8.750601918096436 -4.3505994011060745 8.72954752391691 -4.343183160903942 8.71145812087484 -4.3509943244181155 L 8.710238168979458 -4.351488354524511 L 7.773799061184685 -4.72493478597066 C 7.737107095394742 -4.739858019319728 7.695231804904269 -4.733974547533985 7.66407265798776 -4.709518243427343 C 7.632913511071251 -4.685061939320702 7.617249303848652 -4.645783601703098 7.623027519020709 -4.6065966717832065 C 7.628805734192765 -4.567409741863314 7.655140182149779 -4.534324215651473 7.69203203745282 -4.519902209569773 L 8.628481227494662 -4.146455778123622 L 8.628824023895017 -4.146314626664653 C 8.647460772089355 -4.138963101377831 8.657431939700432 -4.118627512393628 8.651831711707116 -4.099391848804221 C 8.567901848415088 -3.8127951424117352 8.571130688227349 -3.5077083858464673 8.661107379010854 -3.222952193318738 C 8.665705536040903 -3.207752788490997 8.657829744606415 -3.19157513101569 8.643029910015633 -3.185819277362577 C 8.642414892944407 -3.1855773034329147 8.64180995812025 -3.1853252472561824 8.641205023296093 -3.185063108832381 L 7.714979231782502 -2.7869555010547717 C 7.678397940036329 -2.7716183558616 7.652860238504273 -2.737830651933363 7.648086265402603 -2.6984526363749373 C 7.643312292300933 -2.6590746208165115 7.660036369537744 -2.6201633322634486 7.6918929930727735 -2.596529152238695 C 7.723749616607803 -2.5728949722139403 7.765838671572041 -2.568173257641896 7.802140257696431 -2.584161183503264 L 8.728366049210024 -2.982268791280874 L 8.728648352127962 -2.9823897782457047 C 8.743530688567226 -2.9888743902001362 8.760901324331893 -2.9829193687201077 8.768674872993007 -2.9686678399844144 C 8.91272198419472 -2.7016990459545456 9.134299270899014 -2.484656442667645 9.404189152510963 -2.3461596591858287 C 9.416823196591771 -2.3397950195448205 9.422509777412081 -2.3248393119874073 9.41729607370103 -2.3116884564559594 L 9.417195251230336 -2.3114464825262964 L 9.043748819784186 -1.3749670457432472 C 9.02882558643512 -1.3382750799533047 9.034709058220864 -1.296399789462832 9.059165362327505 -1.265240642546324 C 9.083621666434146 -1.234081495629816 9.12290000405175 -1.2184172884072186 9.16208693397164 -1.2241955035792733 C 9.201273863891531 -1.2299737187513289 9.234359390103371 -1.2563081667083411 9.248781396185073 -1.2932000220113808 L 9.622217745384155 -2.229649212053223 L 9.622308485607778 -2.229881103735817 C 9.62750640586876 -2.2428434366120467 9.641751066997479 -2.2496812241606214 9.655116117571218 -2.245629573658034 C 9.790528037105629 -2.2053840550891275 9.930927019036186 -2.1843820752456224 10.072188432086143 -2.1832406287933255 C 10.076836347985083 -2.1832406287933255 10.081443934895743 -2.18318013531091 10.086071686300542 -2.18318013531091 C 10.24419800288867 -2.1830005133264496 10.401354736637774 -2.207869001952968 10.551700102701126 -2.2568611968932117 C 10.56439925086436 -2.2610896642178613 10.578222116335619 -2.2548965299414476 10.583519674451773 -2.242604899537249 L 10.583620496922466 -2.2423730078546553 L 10.981718022453006 -1.316147216341065 C 11.005786875786685 -1.260144328710565 11.070697846729393 -1.2342566785577365 11.126700734718547 -1.258325531056908 C 11.182703622707702 -1.2823943835560785 11.208591273827778 -1.34730535411303 11.184522422163116 -1.403308242460838 L 10.786414814473973 -2.3295541982627244 L 10.786313992003281 -2.329786089945318 C 10.78100903942958 -2.3421818777608117 10.786055242517762 -2.3565764674893668 10.797938822874162 -2.3629466005561817 C 11.06589172347078 -2.5090341688844475 11.283294138538 -2.7328798815541084 11.421495557367951 -3.0049840939279635 C 11.427982353129416 -3.018006344956002 11.443364298053439 -3.023887419055158 11.456884244581126 -3.0185144694949377 L 11.457227040981483 -3.0183733180359678 L 12.393666148776251 -2.6449369688368884 C 12.45029268364689 -2.62235762928331 12.51450173144265 -2.649958334216752 12.537081071418129 -2.706584868919159 C 12.559660411393606 -2.7632114036215665 12.532059706938561 -2.8274204516229684 12.475433172404383 -2.8499997920203475 Z" fill="#f7931e" transform="matrix(1,0,0,1,0,0)" fill-rule="nonzero"></path></g></g><g><path d=" M 6.135028015136719 1.4107499999999997 Q 6.016528015136719 1.3229999999999997 6.007528015136719 1.1594999999999998 L 6.321028015136719 1.1594999999999998 Q 6.325528015136719 1.2149999999999999 6.354028015136719 1.2404999999999997 Q 6.382528015136719 1.2659999999999998 6.427528015136719 1.2659999999999998 Q 6.468028015136719 1.2659999999999998 6.494278015136719 1.2457499999999997 Q 6.520528015136719 1.2254999999999998 6.520528015136719 1.1894999999999998 Q 6.520528015136719 1.1429999999999998 6.477028015136719 1.1174999999999997 Q 6.433528015136719 1.0919999999999996 6.336028015136719 1.0604999999999998 Q 6.232528015136719 1.0259999999999998 6.168778015136719 0.9937499999999997 Q 6.105028015136719 0.9614999999999998 6.057778015136719 0.8992499999999998 Q 6.010528015136719 0.8369999999999997 6.010528015136719 0.7364999999999997 Q 6.010528015136719 0.6344999999999997 6.061528015136719 0.5617499999999997 Q 6.112528015136719 0.48899999999999977 6.202528015136719 0.4514999999999998 Q 6.292528015136719 0.4139999999999997 6.406528015136719 0.4139999999999997 Q 6.591028015136719 0.4139999999999997 6.701278015136719 0.5002499999999998 Q 6.8115280151367195 0.5864999999999998 6.819028015136719 0.7424999999999997 L 6.499528015136719 0.7424999999999997 Q 6.498028015136719 0.6944999999999998 6.470278015136719 0.6704999999999998 Q 6.442528015136719 0.6464999999999997 6.399028015136719 0.6464999999999997 Q 6.366028015136719 0.6464999999999997 6.345028015136719 0.6659999999999997 Q 6.324028015136719 0.6854999999999998 6.324028015136719 0.7214999999999997 Q 6.324028015136719 0.7514999999999997 6.347278015136719 0.7732499999999998 Q 6.370528015136719 0.7949999999999997 6.405028015136719 0.8107499999999997 Q 6.439528015136719 0.8264999999999998 6.507028015136719 0.8504999999999997 Q 6.607528015136719 0.8849999999999998 6.672778015136719 0.9187499999999997 Q 6.738028015136719 0.9524999999999998 6.785278015136719 1.0132499999999998 Q 6.832528015136719 1.0739999999999998 6.832528015136719 1.1669999999999998 Q 6.832528015136719 1.2614999999999998 6.785278015136719 1.3364999999999998 Q 6.738028015136719 1.4114999999999998 6.648778015136719 1.4549999999999998 Q 6.559528015136719 1.4984999999999997 6.438028015136719 1.4984999999999997 Q 6.253528015136719 1.4984999999999997 6.135028015136719 1.4107499999999997 M 7.261520690917969 0.43049999999999966 L 7.261520690917969 1.4879999999999998 L 6.9675206909179686 1.4879999999999998 L 6.9675206909179686 0.43049999999999966 L 7.261520690917969 0.43049999999999966 M 7.299020690917969 0.22199999999999975 L 6.924020690917969 0.3689999999999998 L 6.924020690917969 0.16949999999999976 L 7.299020690917969 -2.220446049250313e-16 L 7.299020690917969 0.22199999999999975 M 8.381964294433594 1.3154999999999997 L 8.006964294433594 1.3154999999999997 L 7.9499642944335935 1.4879999999999998 L 7.640964294433593 1.4879999999999998 L 8.026464294433595 0.43049999999999966 L 8.365464294433593 0.43049999999999966 L 8.749464294433594 1.4879999999999998 L 8.438964294433594 1.4879999999999998 L 8.381964294433594 1.3154999999999997 M 8.308464294433595 1.0904999999999998 L 8.194464294433594 0.7484999999999997 L 8.081964294433593 1.0904999999999998 L 8.308464294433595 1.0904999999999998 M 9.790471618652344 0.43049999999999966 L 9.790471618652344 1.4879999999999998 L 9.496471618652343 1.4879999999999998 L 9.496471618652343 1.0635 L 9.137971618652344 1.0635 L 9.137971618652344 1.4879999999999998 L 8.843971618652343 1.4879999999999998 L 8.843971618652343 0.43049999999999966 L 9.137971618652344 0.43049999999999966 L 9.137971618652344 0.8279999999999997 L 9.496471618652343 0.8279999999999997 L 9.496471618652343 0.43049999999999966 L 9.790471618652344 0.43049999999999966 M 10.190943054199218 1.4287499999999997 Q 10.066443054199219 1.3589999999999998 9.993693054199218 1.2352499999999997 Q 9.920943054199219 1.1114999999999997 9.920943054199219 0.9554999999999998 Q 9.920943054199219 0.7994999999999998 9.993693054199218 0.6757499999999997 Q 10.066443054199219 0.5519999999999997 10.190943054199218 0.48299999999999965 Q 10.31544305419922 0.4139999999999997 10.463943054199218 0.4139999999999997 Q 10.613943054199218 0.4139999999999997 10.73769305419922 0.48299999999999965 Q 10.861443054199219 0.5519999999999997 10.933443054199218 0.6757499999999997 Q 11.005443054199219 0.7994999999999998 11.005443054199219 0.9554999999999998 Q 11.005443054199219 1.1114999999999997 10.933443054199218 1.2352499999999997 Q 10.861443054199219 1.3589999999999998 10.73694305419922 1.4287499999999997 Q 10.612443054199218 1.4984999999999997 10.463943054199218 1.4984999999999997 Q 10.31544305419922 1.4984999999999997 10.190943054199218 1.4287499999999997 M 10.64169305419922 1.1519999999999997 Q 10.706943054199218 1.0784999999999998 10.706943054199218 0.9554999999999998 Q 10.706943054199218 0.8294999999999998 10.64169305419922 0.7567499999999997 Q 10.576443054199219 0.6839999999999997 10.463943054199218 0.6839999999999997 Q 10.349943054199219 0.6839999999999997 10.285443054199218 0.7567499999999997 Q 10.22094305419922 0.8294999999999998 10.22094305419922 0.9554999999999998 Q 10.22094305419922 1.0799999999999996 10.285443054199218 1.1527499999999997 Q 10.349943054199219 1.2254999999999998 10.463943054199218 1.2254999999999998 Q 10.576443054199219 1.2254999999999998 10.64169305419922 1.1519999999999997 M 11.671424011230469 1.4879999999999998 L 11.461424011230468 1.0979999999999999 L 11.429924011230469 1.0979999999999999 L 11.429924011230469 1.4879999999999998 L 11.135924011230468 1.4879999999999998 L 11.135924011230468 0.43049999999999966 L 11.599424011230468 0.43049999999999966 Q 11.72692401123047 0.43049999999999966 11.81542401123047 0.4747499999999998 Q 11.903924011230469 0.5189999999999998 11.948924011230469 0.5962499999999997 Q 11.993924011230469 0.6734999999999998 11.993924011230469 0.7694999999999997 Q 11.993924011230469 0.8774999999999997 11.934674011230468 0.9592499999999997 Q 11.875424011230468 1.0409999999999997 11.761424011230469 1.0754999999999997 L 11.999924011230469 1.4879999999999998 L 11.671424011230469 1.4879999999999998 M 11.429924011230469 0.8969999999999998 L 11.575424011230469 0.8969999999999998 Q 11.63542401123047 0.8969999999999998 11.665424011230469 0.8684999999999997 Q 11.695424011230468 0.8399999999999997 11.695424011230468 0.7859999999999997 Q 11.695424011230468 0.7349999999999998 11.664674011230469 0.7057499999999998 Q 11.63392401123047 0.6764999999999998 11.575424011230469 0.6764999999999998 L 11.429924011230469 0.6764999999999998 L 11.429924011230469 0.8969999999999998 M 12.661440124511719 1.4879999999999998 L 12.451440124511718 1.0979999999999999 L 12.419940124511719 1.0979999999999999 L 12.419940124511719 1.4879999999999998 L 12.125940124511718 1.4879999999999998 L 12.125940124511718 0.43049999999999966 L 12.589440124511718 0.43049999999999966 Q 12.71694012451172 0.43049999999999966 12.805440124511719 0.4747499999999998 Q 12.893940124511719 0.5189999999999998 12.938940124511719 0.5962499999999997 Q 12.983940124511719 0.6734999999999998 12.983940124511719 0.7694999999999997 Q 12.983940124511719 0.8774999999999997 12.924690124511718 0.9592499999999997 Q 12.865440124511718 1.0409999999999997 12.751440124511719 1.0754999999999997 L 12.989940124511719 1.4879999999999998 L 12.661440124511719 1.4879999999999998 M 12.419940124511719 0.8969999999999998 L 12.565440124511719 0.8969999999999998 Q 12.62544012451172 0.8969999999999998 12.655440124511719 0.8684999999999997 Q 12.685440124511718 0.8399999999999997 12.685440124511718 0.7859999999999997 Q 12.685440124511718 0.7349999999999998 12.654690124511719 0.7057499999999998 Q 12.62394012451172 0.6764999999999998 12.565440124511719 0.6764999999999998 L 12.419940124511719 0.6764999999999998 L 12.419940124511719 0.8969999999999998 M 13.349956237792968 1.4287499999999997 Q 13.225456237792969 1.3589999999999998 13.152706237792968 1.2352499999999997 Q 13.079956237792969 1.1114999999999997 13.079956237792969 0.9554999999999998 Q 13.079956237792969 0.7994999999999998 13.152706237792968 0.6757499999999997 Q 13.225456237792969 0.5519999999999997 13.349956237792968 0.48299999999999965 Q 13.47445623779297 0.4139999999999997 13.622956237792968 0.4139999999999997 Q 13.772956237792968 0.4139999999999997 13.89670623779297 0.48299999999999965 Q 14.020456237792969 0.5519999999999997 14.092456237792968 0.6757499999999997 Q 14.164456237792969 0.7994999999999998 14.164456237792969 0.9554999999999998 Q 14.164456237792969 1.1114999999999997 14.092456237792968 1.2352499999999997 Q 14.020456237792969 1.3589999999999998 13.89595623779297 1.4287499999999997 Q 13.771456237792968 1.4984999999999997 13.622956237792968 1.4984999999999997 Q 13.47445623779297 1.4984999999999997 13.349956237792968 1.4287499999999997 M 13.80070623779297 1.1519999999999997 Q 13.865956237792968 1.0784999999999998 13.865956237792968 0.9554999999999998 Q 13.865956237792968 0.8294999999999998 13.80070623779297 0.7567499999999997 Q 13.735456237792969 0.6839999999999997 13.622956237792968 0.6839999999999997 Q 13.508956237792969 0.6839999999999997 13.444456237792968 0.7567499999999997 Q 13.37995623779297 0.8294999999999998 13.37995623779297 0.9554999999999998 Q 13.37995623779297 1.0799999999999996 13.444456237792968 1.1527499999999997 Q 13.508956237792969 1.2254999999999998 13.622956237792968 1.2254999999999998 Q 13.735456237792969 1.2254999999999998 13.80070623779297 1.1519999999999997" fill="#bf5000" fill-rule="nonzero"></path></g><g><path d=" M 0.38925 2.089125 Q 0.4515 2.122125 0.48562500000000003 2.18175 Q 0.51975 2.241375 0.51975 2.319375 Q 0.51975 2.3966250000000002 0.48562500000000003 2.4566250000000003 Q 0.4515 2.5166250000000003 0.388875 2.5496250000000003 Q 0.32625 2.582625 0.24375 2.582625 L 0.0465 2.582625 L 0.0465 2.056125 L 0.24375 2.056125 Q 0.327 2.056125 0.38925 2.089125 M 0.34875 2.4318750000000002 Q 0.38925 2.392125 0.38925 2.319375 Q 0.38925 2.2466250000000003 0.34875 2.206125 Q 0.30825 2.1656250000000004 0.23550000000000001 2.1656250000000004 L 0.17475000000000002 2.1656250000000004 L 0.17475000000000002 2.471625 L 0.23550000000000001 2.471625 Q 0.30825 2.471625 0.34875 2.4318750000000002 M 0.7199923095703125 2.158875 L 0.7199923095703125 2.265375 L 0.8917423095703125 2.265375 L 0.8917423095703125 2.3643750000000003 L 0.7199923095703125 2.3643750000000003 L 0.7199923095703125 2.4798750000000003 L 0.9142423095703125 2.4798750000000003 L 0.9142423095703125 2.582625 L 0.5917423095703125 2.582625 L 0.5917423095703125 2.056125 L 0.9142423095703125 2.056125 L 0.9142423095703125 2.158875 L 0.7199923095703125 2.158875 M 1.0845040283203125 2.569125 Q 1.0387540283203125 2.5503750000000003 1.0113790283203126 2.513625 Q 0.9840040283203125 2.476875 0.9825040283203125 2.425125 L 1.1190040283203124 2.425125 Q 1.1220040283203125 2.454375 1.1392540283203125 2.4697500000000003 Q 1.1565040283203125 2.485125 1.1842540283203125 2.485125 Q 1.2127540283203124 2.485125 1.2292540283203124 2.472 Q 1.2457540283203126 2.4588750000000004 1.2457540283203126 2.4356250000000004 Q 1.2457540283203126 2.416125 1.2326290283203125 2.403375 Q 1.2195040283203125 2.390625 1.2003790283203126 2.382375 Q 1.1812540283203126 2.3741250000000003 1.1460040283203126 2.3636250000000003 Q 1.0950040283203126 2.347875 1.0627540283203125 2.332125 Q 1.0305040283203124 2.3163750000000003 1.0072540283203124 2.285625 Q 0.9840040283203125 2.254875 0.9840040283203125 2.205375 Q 0.9840040283203125 2.131875 1.0372540283203124 2.09025 Q 1.0905040283203125 2.0486250000000004 1.1760040283203126 2.0486250000000004 Q 1.2630040283203126 2.0486250000000004 1.3162540283203126 2.09025 Q 1.3695040283203124 2.131875 1.3732540283203125 2.206125 L 1.2345040283203126 2.206125 Q 1.2330040283203125 2.180625 1.2157540283203125 2.1660000000000004 Q 1.1985040283203126 2.1513750000000003 1.1715040283203124 2.1513750000000003 Q 1.1482540283203124 2.1513750000000003 1.1340040283203126 2.1637500000000003 Q 1.1197540283203125 2.1761250000000003 1.1197540283203125 2.1993750000000003 Q 1.1197540283203125 2.224875 1.1437540283203125 2.239125 Q 1.1677540283203125 2.253375 1.2187540283203124 2.2698750000000003 Q 1.2697540283203126 2.287125 1.3016290283203125 2.3028750000000002 Q 1.3335040283203126 2.318625 1.3567540283203126 2.348625 Q 1.3800040283203125 2.378625 1.3800040283203125 2.425875 Q 1.3800040283203125 2.4708750000000004 1.3571290283203126 2.507625 Q 1.3342540283203126 2.544375 1.2907540283203125 2.566125 Q 1.2472540283203126 2.5878750000000004 1.1880040283203126 2.5878750000000004 Q 1.1302540283203124 2.5878750000000004 1.0845040283203125 2.569125 M 1.4707467041015625 2.1795 Q 1.5044967041015624 2.1183750000000003 1.5648717041015625 2.08425 Q 1.6252467041015626 2.0501250000000004 1.7017467041015624 2.0501250000000004 Q 1.7954967041015626 2.0501250000000004 1.8622467041015625 2.099625 Q 1.9289967041015625 2.149125 1.9514967041015625 2.2346250000000003 L 1.8104967041015625 2.2346250000000003 Q 1.7947467041015626 2.201625 1.7658717041015626 2.184375 Q 1.7369967041015624 2.167125 1.7002467041015625 2.167125 Q 1.6409967041015625 2.167125 1.6042467041015624 2.208375 Q 1.5674967041015626 2.249625 1.5674967041015626 2.318625 Q 1.5674967041015626 2.3876250000000003 1.6042467041015624 2.428875 Q 1.6409967041015625 2.4701250000000003 1.7002467041015625 2.4701250000000003 Q 1.7369967041015624 2.4701250000000003 1.7658717041015626 2.452875 Q 1.7947467041015626 2.4356250000000004 1.8104967041015625 2.402625 L 1.9514967041015625 2.402625 Q 1.9289967041015625 2.488125 1.8622467041015625 2.5372500000000002 Q 1.7954967041015626 2.5863750000000003 1.7017467041015624 2.5863750000000003 Q 1.6252467041015626 2.5863750000000003 1.5648717041015625 2.5522500000000004 Q 1.5044967041015624 2.5181250000000004 1.4707467041015625 2.4573750000000003 Q 1.4369967041015625 2.3966250000000002 1.4369967041015625 2.318625 Q 1.4369967041015625 2.240625 1.4707467041015625 2.1795 M 2.1562646484375 2.056125 L 2.1562646484375 2.371125 Q 2.1562646484375 2.418375 2.1795146484375 2.4438750000000002 Q 2.2027646484375 2.4693750000000003 2.2477646484375002 2.4693750000000003 Q 2.2927646484375 2.4693750000000003 2.3167646484375 2.4438750000000002 Q 2.3407646484375 2.418375 2.3407646484375 2.371125 L 2.3407646484375 2.056125 L 2.4690146484375 2.056125 L 2.4690146484375 2.370375 Q 2.4690146484375 2.440875 2.4390146484375 2.489625 Q 2.4090146484375 2.5383750000000003 2.3583896484375 2.5631250000000003 Q 2.3077646484375 2.5878750000000004 2.2455146484375 2.5878750000000004 Q 2.1832646484375 2.5878750000000004 2.1341396484375 2.5635000000000003 Q 2.0850146484375 2.5391250000000003 2.0565146484375 2.49 Q 2.0280146484375 2.440875 2.0280146484375 2.370375 L 2.0280146484375 2.056125 L 2.1562646484375 2.056125 M 2.9512774658203127 2.358 Q 2.9790274658203124 2.393625 2.9790274658203124 2.439375 Q 2.9790274658203124 2.5053750000000004 2.9329024658203124 2.544 Q 2.8867774658203125 2.582625 2.8042774658203125 2.582625 L 2.5590274658203125 2.582625 L 2.5590274658203125 2.056125 L 2.7960274658203126 2.056125 Q 2.8762774658203125 2.056125 2.9216524658203125 2.0928750000000003 Q 2.9670274658203124 2.1296250000000003 2.9670274658203124 2.192625 Q 2.9670274658203124 2.239125 2.9426524658203124 2.2698750000000003 Q 2.9182774658203123 2.300625 2.8777774658203126 2.312625 Q 2.9235274658203125 2.322375 2.9512774658203127 2.358 M 2.6872774658203125 2.2691250000000003 L 2.7712774658203125 2.2691250000000003 Q 2.8027774658203124 2.2691250000000003 2.8196524658203126 2.25525 Q 2.8365274658203123 2.241375 2.8365274658203123 2.214375 Q 2.8365274658203123 2.1873750000000003 2.8196524658203126 2.173125 Q 2.8027774658203124 2.158875 2.7712774658203125 2.158875 L 2.6872774658203125 2.158875 L 2.6872774658203125 2.2691250000000003 M 2.8316524658203126 2.4645 Q 2.8492774658203124 2.449875 2.8492774658203124 2.4221250000000003 Q 2.8492774658203124 2.394375 2.8309024658203126 2.378625 Q 2.8125274658203123 2.3628750000000003 2.7802774658203124 2.3628750000000003 L 2.6872774658203125 2.3628750000000003 L 2.6872774658203125 2.4791250000000002 L 2.7817774658203125 2.4791250000000002 Q 2.8140274658203124 2.4791250000000002 2.8316524658203126 2.4645 M 3.32177490234375 2.582625 L 3.21227490234375 2.383875 L 3.18152490234375 2.383875 L 3.18152490234375 2.582625 L 3.05327490234375 2.582625 L 3.05327490234375 2.056125 L 3.26852490234375 2.056125 Q 3.33077490234375 2.056125 3.37464990234375 2.077875 Q 3.41852490234375 2.099625 3.44027490234375 2.1375 Q 3.46202490234375 2.1753750000000003 3.46202490234375 2.2218750000000003 Q 3.46202490234375 2.274375 3.43239990234375 2.3156250000000003 Q 3.40277490234375 2.356875 3.34502490234375 2.3741250000000003 L 3.46652490234375 2.582625 L 3.32177490234375 2.582625 M 3.18152490234375 2.2931250000000003 L 3.26102490234375 2.2931250000000003 Q 3.29627490234375 2.2931250000000003 3.31389990234375 2.275875 Q 3.33152490234375 2.2586250000000003 3.33152490234375 2.227125 Q 3.33152490234375 2.197125 3.31389990234375 2.179875 Q 3.29627490234375 2.1626250000000002 3.26102490234375 2.1626250000000002 L 3.18152490234375 2.1626250000000002 L 3.18152490234375 2.2931250000000003 M 3.670508056640625 2.158875 L 3.670508056640625 2.265375 L 3.842258056640625 2.265375 L 3.842258056640625 2.3643750000000003 L 3.670508056640625 2.3643750000000003 L 3.670508056640625 2.4798750000000003 L 3.8647580566406248 2.4798750000000003 L 3.8647580566406248 2.582625 L 3.542258056640625 2.582625 L 3.542258056640625 2.056125 L 3.8647580566406248 2.056125 L 3.8647580566406248 2.158875 L 3.670508056640625 2.158875 M 4.194001098632812 2.569125 Q 4.148251098632812 2.5503750000000003 4.120876098632812 2.513625 Q 4.093501098632813 2.476875 4.092001098632813 2.425125 L 4.228501098632813 2.425125 Q 4.231501098632813 2.454375 4.2487510986328125 2.4697500000000003 Q 4.266001098632812 2.485125 4.2937510986328125 2.485125 Q 4.322251098632813 2.485125 4.338751098632812 2.472 Q 4.355251098632812 2.4588750000000004 4.355251098632812 2.4356250000000004 Q 4.355251098632812 2.416125 4.3421260986328125 2.403375 Q 4.329001098632813 2.390625 4.309876098632812 2.382375 Q 4.290751098632812 2.3741250000000003 4.255501098632813 2.3636250000000003 Q 4.204501098632813 2.347875 4.172251098632812 2.332125 Q 4.140001098632813 2.3163750000000003 4.116751098632813 2.285625 Q 4.093501098632813 2.254875 4.093501098632813 2.205375 Q 4.093501098632813 2.131875 4.146751098632812 2.09025 Q 4.2000010986328125 2.0486250000000004 4.285501098632812 2.0486250000000004 Q 4.372501098632813 2.0486250000000004 4.425751098632812 2.09025 Q 4.479001098632812 2.131875 4.4827510986328125 2.206125 L 4.344001098632813 2.206125 Q 4.3425010986328125 2.180625 4.325251098632813 2.1660000000000004 Q 4.308001098632812 2.1513750000000003 4.281001098632813 2.1513750000000003 Q 4.257751098632813 2.1513750000000003 4.243501098632812 2.1637500000000003 Q 4.229251098632813 2.1761250000000003 4.229251098632813 2.1993750000000003 Q 4.229251098632813 2.224875 4.253251098632813 2.239125 Q 4.277251098632813 2.253375 4.328251098632813 2.2698750000000003 Q 4.379251098632812 2.287125 4.4111260986328125 2.3028750000000002 Q 4.443001098632813 2.318625 4.466251098632813 2.348625 Q 4.489501098632813 2.378625 4.489501098632813 2.425875 Q 4.489501098632813 2.4708750000000004 4.466626098632813 2.507625 Q 4.443751098632813 2.544375 4.400251098632813 2.566125 Q 4.356751098632812 2.5878750000000004 4.297501098632813 2.5878750000000004 Q 4.239751098632812 2.5878750000000004 4.194001098632812 2.569125 M 4.696493774414063 2.056125 L 4.696493774414063 2.582625 L 4.5682437744140625 2.582625 L 4.5682437744140625 2.056125 L 4.696493774414063 2.056125 M 5.076712280273438 2.158875 L 5.076712280273438 2.265375 L 5.248462280273437 2.265375 L 5.248462280273437 2.3643750000000003 L 5.076712280273438 2.3643750000000003 L 5.076712280273438 2.4798750000000003 L 5.270962280273437 2.4798750000000003 L 5.270962280273437 2.582625 L 4.9484622802734375 2.582625 L 4.9484622802734375 2.056125 L 5.270962280273437 2.056125 L 5.270962280273437 2.158875 L 5.076712280273438 2.158875 M 5.441223999023437 2.569125 Q 5.395473999023437 2.5503750000000003 5.368098999023437 2.513625 Q 5.340723999023438 2.476875 5.339223999023438 2.425125 L 5.475723999023438 2.425125 Q 5.478723999023438 2.454375 5.4959739990234375 2.4697500000000003 Q 5.513223999023437 2.485125 5.5409739990234375 2.485125 Q 5.569473999023438 2.485125 5.585973999023437 2.472 Q 5.602473999023437 2.4588750000000004 5.602473999023437 2.4356250000000004 Q 5.602473999023437 2.416125 5.5893489990234375 2.403375 Q 5.576223999023438 2.390625 5.557098999023437 2.382375 Q 5.537973999023437 2.3741250000000003 5.502723999023438 2.3636250000000003 Q 5.451723999023438 2.347875 5.419473999023437 2.332125 Q 5.387223999023438 2.3163750000000003 5.363973999023438 2.285625 Q 5.340723999023438 2.254875 5.340723999023438 2.205375 Q 5.340723999023438 2.131875 5.393973999023437 2.09025 Q 5.4472239990234375 2.0486250000000004 5.532723999023437 2.0486250000000004 Q 5.619723999023438 2.0486250000000004 5.672973999023437 2.09025 Q 5.726223999023437 2.131875 5.7299739990234375 2.206125 L 5.591223999023438 2.206125 Q 5.5897239990234375 2.180625 5.572473999023438 2.1660000000000004 Q 5.555223999023437 2.1513750000000003 5.528223999023438 2.1513750000000003 Q 5.504973999023438 2.1513750000000003 5.490723999023437 2.1637500000000003 Q 5.476473999023438 2.1761250000000003 5.476473999023438 2.1993750000000003 Q 5.476473999023438 2.224875 5.500473999023438 2.239125 Q 5.524473999023438 2.253375 5.575473999023438 2.2698750000000003 Q 5.626473999023437 2.287125 5.6583489990234375 2.3028750000000002 Q 5.690223999023438 2.318625 5.713473999023438 2.348625 Q 5.736723999023438 2.378625 5.736723999023438 2.425875 Q 5.736723999023438 2.4708750000000004 5.713848999023438 2.507625 Q 5.690973999023438 2.544375 5.647473999023438 2.566125 Q 5.603973999023437 2.5878750000000004 5.544723999023438 2.5878750000000004 Q 5.486973999023437 2.5878750000000004 5.441223999023437 2.569125 M 6.194216674804688 2.056125 L 6.194216674804688 2.158875 L 6.054716674804688 2.158875 L 6.054716674804688 2.582625 L 5.926466674804687 2.582625 L 5.926466674804687 2.158875 L 5.786966674804687 2.158875 L 5.786966674804687 2.056125 L 6.194216674804688 2.056125 M 6.58646923828125 2.489625 L 6.38996923828125 2.489625 L 6.35846923828125 2.582625 L 6.22421923828125 2.582625 L 6.41471923828125 2.056125 L 6.56321923828125 2.056125 L 6.75371923828125 2.582625 L 6.61796923828125 2.582625 L 6.58646923828125 2.489625 M 6.55346923828125 2.390625 L 6.48821923828125 2.1978750000000002 L 6.42371923828125 2.390625 L 6.55346923828125 2.390625 M 6.57596923828125 1.9503750000000002 L 6.39521923828125 2.0261250000000004 L 6.39521923828125 1.9376250000000002 L 6.57596923828125 1.8506250000000002 L 6.57596923828125 1.9503750000000002 M 6.898468872070312 2.569125 Q 6.852718872070312 2.5503750000000003 6.825343872070312 2.513625 Q 6.797968872070313 2.476875 6.796468872070313 2.425125 L 6.932968872070313 2.425125 Q 6.935968872070313 2.454375 6.9532188720703125 2.4697500000000003 Q 6.970468872070312 2.485125 6.9982188720703125 2.485125 Q 7.026718872070313 2.485125 7.043218872070312 2.472 Q 7.059718872070312 2.4588750000000004 7.059718872070312 2.4356250000000004 Q 7.059718872070312 2.416125 7.0465938720703125 2.403375 Q 7.033468872070313 2.390625 7.014343872070312 2.382375 Q 6.995218872070312 2.3741250000000003 6.959968872070313 2.3636250000000003 Q 6.908968872070313 2.347875 6.876718872070312 2.332125 Q 6.844468872070313 2.3163750000000003 6.821218872070313 2.285625 Q 6.797968872070313 2.254875 6.797968872070313 2.205375 Q 6.797968872070313 2.131875 6.851218872070312 2.09025 Q 6.9044688720703125 2.0486250000000004 6.989968872070312 2.0486250000000004 Q 7.076968872070313 2.0486250000000004 7.130218872070312 2.09025 Q 7.183468872070312 2.131875 7.1872188720703125 2.206125 L 7.048468872070313 2.206125 Q 7.0469688720703125 2.180625 7.029718872070313 2.1660000000000004 Q 7.012468872070312 2.1513750000000003 6.985468872070313 2.1513750000000003 Q 6.962218872070313 2.1513750000000003 6.947968872070312 2.1637500000000003 Q 6.933718872070313 2.1761250000000003 6.933718872070313 2.1993750000000003 Q 6.933718872070313 2.224875 6.957718872070313 2.239125 Q 6.981718872070313 2.253375 7.032718872070313 2.2698750000000003 Q 7.083718872070312 2.287125 7.1155938720703125 2.3028750000000002 Q 7.147468872070313 2.318625 7.170718872070313 2.348625 Q 7.193968872070313 2.378625 7.193968872070313 2.425875 Q 7.193968872070313 2.4708750000000004 7.171093872070313 2.507625 Q 7.148218872070313 2.544375 7.104718872070313 2.566125 Q 7.061218872070312 2.5878750000000004 7.001968872070313 2.5878750000000004 Q 6.944218872070312 2.5878750000000004 6.898468872070312 2.569125 M 7.81194287109375 2.30925 Q 7.79094287109375 2.347125 7.74744287109375 2.370375 Q 7.70394287109375 2.393625 7.63944287109375 2.393625 L 7.55994287109375 2.393625 L 7.55994287109375 2.582625 L 7.43169287109375 2.582625 L 7.43169287109375 2.056125 L 7.63944287109375 2.056125 Q 7.70244287109375 2.056125 7.74594287109375 2.077875 Q 7.78944287109375 2.099625 7.81119287109375 2.137875 Q 7.83294287109375 2.1761250000000003 7.83294287109375 2.225625 Q 7.83294287109375 2.271375 7.81194287109375 2.30925 M 7.68444287109375 2.274375 Q 7.70244287109375 2.2571250000000003 7.70244287109375 2.225625 Q 7.70244287109375 2.194125 7.68444287109375 2.1768750000000003 Q 7.66644287109375 2.159625 7.62969287109375 2.159625 L 7.55994287109375 2.159625 L 7.55994287109375 2.2916250000000002 L 7.62969287109375 2.2916250000000002 Q 7.66644287109375 2.2916250000000002 7.68444287109375 2.274375 M 8.22746044921875 2.489625 L 8.03096044921875 2.489625 L 7.99946044921875 2.582625 L 7.86521044921875 2.582625 L 8.05571044921875 2.056125 L 8.20421044921875 2.056125 L 8.39471044921875 2.582625 L 8.25896044921875 2.582625 L 8.22746044921875 2.489625 M 8.19446044921875 2.390625 L 8.12921044921875 2.1978750000000002 L 8.06471044921875 2.390625 L 8.19446044921875 2.390625 M 8.801960083007813 2.2226250000000003 Q 8.787710083007813 2.196375 8.761085083007812 2.1825 Q 8.734460083007813 2.168625 8.698460083007813 2.168625 Q 8.636210083007812 2.168625 8.598710083007813 2.2095000000000002 Q 8.561210083007813 2.250375 8.561210083007813 2.318625 Q 8.561210083007813 2.391375 8.600585083007813 2.4322500000000002 Q 8.639960083007812 2.473125 8.708960083007813 2.473125 Q 8.756210083007813 2.473125 8.788835083007813 2.449125 Q 8.821460083007812 2.425125 8.836460083007813 2.380125 L 8.673710083007812 2.380125 L 8.673710083007812 2.285625 L 8.952710083007812 2.285625 L 8.952710083007812 2.404875 Q 8.938460083007813 2.452875 8.904335083007812 2.4941250000000004 Q 8.870210083007812 2.535375 8.817710083007812 2.5608750000000002 Q 8.765210083007812 2.5863750000000003 8.699210083007813 2.5863750000000003 Q 8.621210083007812 2.5863750000000003 8.560085083007813 2.5522500000000004 Q 8.498960083007812 2.5181250000000004 8.464835083007813 2.4573750000000003 Q 8.430710083007812 2.3966250000000002 8.430710083007812 2.318625 Q 8.430710083007812 2.240625 8.464835083007813 2.1795 Q 8.498960083007812 2.1183750000000003 8.559710083007813 2.08425 Q 8.620460083007812 2.0501250000000004 8.698460083007813 2.0501250000000004 Q 8.792960083007813 2.0501250000000004 8.857835083007812 2.0958750000000004 Q 8.922710083007813 2.1416250000000003 8.943710083007813 2.2226250000000003 L 8.801960083007813 2.2226250000000003 M 9.35172802734375 2.489625 L 9.15522802734375 2.489625 L 9.12372802734375 2.582625 L 8.98947802734375 2.582625 L 9.17997802734375 2.056125 L 9.32847802734375 2.056125 L 9.51897802734375 2.582625 L 9.38322802734375 2.582625 L 9.35172802734375 2.489625 M 9.31872802734375 2.390625 L 9.25347802734375 2.1978750000000002 L 9.18897802734375 2.390625 L 9.31872802734375 2.390625 M 10.047727661132813 2.582625 L 9.919477661132813 2.582625 L 9.704977661132812 2.2578750000000003 L 9.704977661132812 2.582625 L 9.576727661132812 2.582625 L 9.576727661132812 2.056125 L 9.704977661132812 2.056125 L 9.919477661132813 2.382375 L 9.919477661132813 2.056125 L 10.047727661132813 2.056125 L 10.047727661132813 2.582625 M 10.48348828125 2.089125 Q 10.54573828125 2.122125 10.57986328125 2.18175 Q 10.61398828125 2.241375 10.61398828125 2.319375 Q 10.61398828125 2.3966250000000002 10.57986328125 2.4566250000000003 Q 10.54573828125 2.5166250000000003 10.48311328125 2.5496250000000003 Q 10.42048828125 2.582625 10.33798828125 2.582625 L 10.14073828125 2.582625 L 10.14073828125 2.056125 L 10.33798828125 2.056125 Q 10.42123828125 2.056125 10.48348828125 2.089125 M 10.44298828125 2.4318750000000002 Q 10.48348828125 2.392125 10.48348828125 2.319375 Q 10.48348828125 2.2466250000000003 10.44298828125 2.206125 Q 10.40248828125 2.1656250000000004 10.32973828125 2.1656250000000004 L 10.26898828125 2.1656250000000004 L 10.26898828125 2.471625 L 10.32973828125 2.471625 Q 10.40248828125 2.471625 10.44298828125 2.4318750000000002 M 10.798855590820313 2.553375 Q 10.736980590820313 2.518875 10.700605590820313 2.4570000000000003 Q 10.664230590820312 2.395125 10.664230590820312 2.3178750000000004 Q 10.664230590820312 2.240625 10.700605590820313 2.179125 Q 10.736980590820313 2.1176250000000003 10.798855590820313 2.0831250000000003 Q 10.860730590820312 2.0486250000000004 10.934980590820313 2.0486250000000004 Q 11.009230590820312 2.0486250000000004 11.071105590820313 2.0831250000000003 Q 11.132980590820312 2.1176250000000003 11.168605590820313 2.179125 Q 11.204230590820313 2.240625 11.204230590820313 2.3178750000000004 Q 11.204230590820313 2.395125 11.168230590820313 2.4570000000000003 Q 11.132230590820313 2.518875 11.070730590820313 2.553375 Q 11.009230590820312 2.5878750000000004 10.934980590820313 2.5878750000000004 Q 10.860730590820312 2.5878750000000004 10.798855590820313 2.553375 M 11.035855590820313 2.428875 Q 11.073730590820313 2.3868750000000003 11.073730590820313 2.3178750000000004 Q 11.073730590820313 2.248125 11.035855590820313 2.2065 Q 10.997980590820312 2.1648750000000003 10.934980590820313 2.1648750000000003 Q 10.871230590820312 2.1648750000000003 10.833355590820313 2.206125 Q 10.795480590820313 2.2473750000000003 10.795480590820313 2.3178750000000004 Q 10.795480590820313 2.3876250000000003 10.833355590820313 2.42925 Q 10.871230590820312 2.4708750000000004 10.934980590820313 2.4708750000000004 Q 10.997980590820312 2.4708750000000004 11.035855590820313 2.428875 M 11.777219970703126 2.089125 Q 11.839469970703124 2.122125 11.873594970703126 2.18175 Q 11.907719970703125 2.241375 11.907719970703125 2.319375 Q 11.907719970703125 2.3966250000000002 11.873594970703126 2.4566250000000003 Q 11.839469970703124 2.5166250000000003 11.776844970703126 2.5496250000000003 Q 11.714219970703125 2.582625 11.631719970703125 2.582625 L 11.434469970703125 2.582625 L 11.434469970703125 2.056125 L 11.631719970703125 2.056125 Q 11.714969970703125 2.056125 11.777219970703126 2.089125 M 11.736719970703126 2.4318750000000002 Q 11.777219970703126 2.392125 11.777219970703126 2.319375 Q 11.777219970703126 2.2466250000000003 11.736719970703126 2.206125 Q 11.696219970703124 2.1656250000000004 11.623469970703125 2.1656250000000004 L 11.562719970703125 2.1656250000000004 L 11.562719970703125 2.471625 L 11.623469970703125 2.471625 Q 11.696219970703124 2.471625 11.736719970703126 2.4318750000000002 M 12.107962280273437 2.158875 L 12.107962280273437 2.265375 L 12.279712280273438 2.265375 L 12.279712280273438 2.3643750000000003 L 12.107962280273437 2.3643750000000003 L 12.107962280273437 2.4798750000000003 L 12.302212280273437 2.4798750000000003 L 12.302212280273437 2.582625 L 11.979712280273437 2.582625 L 11.979712280273437 2.056125 L 12.302212280273437 2.056125 L 12.302212280273437 2.158875 L 12.107962280273437 2.158875 M 13.140705322265624 2.056125 L 13.140705322265624 2.582625 L 13.012455322265625 2.582625 L 13.012455322265625 2.266875 L 12.894705322265626 2.582625 L 12.791205322265625 2.582625 L 12.672705322265625 2.266125 L 12.672705322265625 2.582625 L 12.544455322265625 2.582625 L 12.544455322265625 2.056125 L 12.695955322265625 2.056125 L 12.843705322265626 2.4206250000000002 L 12.989955322265626 2.056125 L 13.140705322265624 2.056125 M 13.560727661132812 2.489625 L 13.364227661132812 2.489625 L 13.332727661132813 2.582625 L 13.198477661132813 2.582625 L 13.388977661132813 2.056125 L 13.537477661132813 2.056125 L 13.727977661132812 2.582625 L 13.592227661132812 2.582625 L 13.560727661132812 2.489625 M 13.527727661132813 2.390625 L 13.462477661132812 2.1978750000000002 L 13.397977661132812 2.390625 L 13.527727661132813 2.390625 M 13.550227661132812 1.9503750000000002 L 13.369477661132812 2.0261250000000004 L 13.369477661132812 1.9376250000000002 L 13.550227661132812 1.8506250000000002 L 13.550227661132812 1.9503750000000002 M 13.872727294921875 2.569125 Q 13.826977294921875 2.5503750000000003 13.799602294921876 2.513625 Q 13.772227294921874 2.476875 13.770727294921874 2.425125 L 13.907227294921874 2.425125 Q 13.910227294921874 2.454375 13.927477294921875 2.4697500000000003 Q 13.944727294921876 2.485125 13.972477294921875 2.485125 Q 14.000977294921874 2.485125 14.017477294921875 2.472 Q 14.033977294921876 2.4588750000000004 14.033977294921876 2.4356250000000004 Q 14.033977294921876 2.416125 14.020852294921875 2.403375 Q 14.007727294921875 2.390625 13.988602294921876 2.382375 Q 13.969477294921875 2.3741250000000003 13.934227294921875 2.3636250000000003 Q 13.883227294921875 2.347875 13.850977294921876 2.332125 Q 13.818727294921874 2.3163750000000003 13.795477294921875 2.285625 Q 13.772227294921874 2.254875 13.772227294921874 2.205375 Q 13.772227294921874 2.131875 13.825477294921875 2.09025 Q 13.878727294921875 2.0486250000000004 13.964227294921875 2.0486250000000004 Q 14.051227294921874 2.0486250000000004 14.104477294921875 2.09025 Q 14.157727294921875 2.131875 14.161477294921875 2.206125 L 14.022727294921875 2.206125 Q 14.021227294921875 2.180625 14.003977294921874 2.1660000000000004 Q 13.986727294921875 2.1513750000000003 13.959727294921874 2.1513750000000003 Q 13.936477294921875 2.1513750000000003 13.922227294921875 2.1637500000000003 Q 13.907977294921874 2.1761250000000003 13.907977294921874 2.1993750000000003 Q 13.907977294921874 2.224875 13.931977294921875 2.239125 Q 13.955977294921874 2.253375 14.006977294921874 2.2698750000000003 Q 14.057977294921875 2.287125 14.089852294921876 2.3028750000000002 Q 14.121727294921875 2.318625 14.144977294921874 2.348625 Q 14.168227294921875 2.378625 14.168227294921875 2.425875 Q 14.168227294921875 2.4708750000000004 14.145352294921874 2.507625 Q 14.122477294921875 2.544375 14.078977294921875 2.566125 Q 14.035477294921876 2.5878750000000004 13.976227294921875 2.5878750000000004 Q 13.918477294921875 2.5878750000000004 13.872727294921875 2.569125 M 14.534201293945312 2.158875 L 14.534201293945312 2.265375 L 14.705951293945313 2.265375 L 14.705951293945313 2.3643750000000003 L 14.534201293945312 2.3643750000000003 L 14.534201293945312 2.4798750000000003 L 14.728451293945312 2.4798750000000003 L 14.728451293945312 2.582625 L 14.405951293945312 2.582625 L 14.405951293945312 2.056125 L 14.728451293945312 2.056125 L 14.728451293945312 2.158875 L 14.534201293945312 2.158875 M 15.282713012695313 2.582625 L 15.154463012695313 2.582625 L 14.939963012695312 2.2578750000000003 L 14.939963012695312 2.582625 L 14.811713012695312 2.582625 L 14.811713012695312 2.056125 L 14.939963012695312 2.056125 L 15.154463012695313 2.382375 L 15.154463012695313 2.056125 L 15.282713012695313 2.056125 L 15.282713012695313 2.582625 M 15.913454956054688 2.056125 L 15.913454956054688 2.158875 L 15.773954956054688 2.158875 L 15.773954956054688 2.582625 L 15.645704956054688 2.582625 L 15.645704956054688 2.158875 L 15.506204956054688 2.158875 L 15.506204956054688 2.056125 L 15.913454956054688 2.056125 M 16.10395751953125 2.056125 L 16.10395751953125 2.371125 Q 16.10395751953125 2.418375 16.12720751953125 2.4438750000000002 Q 16.15045751953125 2.4693750000000003 16.19545751953125 2.4693750000000003 Q 16.24045751953125 2.4693750000000003 16.26445751953125 2.4438750000000002 Q 16.28845751953125 2.418375 16.28845751953125 2.371125 L 16.28845751953125 2.056125 L 16.41670751953125 2.056125 L 16.41670751953125 2.370375 Q 16.41670751953125 2.440875 16.38670751953125 2.489625 Q 16.35670751953125 2.5383750000000003 16.30608251953125 2.5631250000000003 Q 16.25545751953125 2.5878750000000004 16.19320751953125 2.5878750000000004 Q 16.13095751953125 2.5878750000000004 16.08183251953125 2.5635000000000003 Q 16.03270751953125 2.5391250000000003 16.00420751953125 2.49 Q 15.97570751953125 2.440875 15.97570751953125 2.370375 L 15.97570751953125 2.056125 L 16.10395751953125 2.056125 M 17.00845166015625 2.056125 L 17.00845166015625 2.158875 L 16.79395166015625 2.158875 L 16.79395166015625 2.2698750000000003 L 16.95445166015625 2.2698750000000003 L 16.95445166015625 2.369625 L 16.79395166015625 2.369625 L 16.79395166015625 2.582625 L 16.66570166015625 2.582625 L 16.66570166015625 2.056125 L 17.00845166015625 2.056125 M 17.403699462890625 2.489625 L 17.207199462890625 2.489625 L 17.175699462890623 2.582625 L 17.041449462890625 2.582625 L 17.231949462890626 2.056125 L 17.380449462890624 2.056125 L 17.570949462890624 2.582625 L 17.435199462890626 2.582625 L 17.403699462890625 2.489625 M 17.370699462890624 2.390625 L 17.305449462890625 2.1978750000000002 L 17.240949462890626 2.390625 L 17.370699462890624 2.390625 M 17.640699096679686 2.1795 Q 17.674449096679687 2.1183750000000003 17.734824096679688 2.08425 Q 17.79519909667969 2.0501250000000004 17.871699096679688 2.0501250000000004 Q 17.965449096679688 2.0501250000000004 18.032199096679687 2.099625 Q 18.09894909667969 2.149125 18.121449096679687 2.2346250000000003 L 17.98044909667969 2.2346250000000003 Q 17.964699096679688 2.201625 17.93582409667969 2.184375 Q 17.90694909667969 2.167125 17.870199096679688 2.167125 Q 17.81094909667969 2.167125 17.774199096679688 2.208375 Q 17.737449096679686 2.249625 17.737449096679686 2.318625 Q 17.737449096679686 2.3876250000000003 17.774199096679688 2.428875 Q 17.81094909667969 2.4701250000000003 17.870199096679688 2.4701250000000003 Q 17.90694909667969 2.4701250000000003 17.93582409667969 2.452875 Q 17.964699096679688 2.4356250000000004 17.98044909667969 2.402625 L 18.121449096679687 2.402625 Q 18.09894909667969 2.488125 18.032199096679687 2.5372500000000002 Q 17.965449096679688 2.5863750000000003 17.871699096679688 2.5863750000000003 Q 17.79519909667969 2.5863750000000003 17.734824096679688 2.5522500000000004 Q 17.674449096679687 2.5181250000000004 17.640699096679686 2.4573750000000003 Q 17.60694909667969 2.3966250000000002 17.60694909667969 2.318625 Q 17.60694909667969 2.240625 17.640699096679686 2.1795 M 18.578967041015623 2.056125 L 18.578967041015623 2.158875 L 18.439467041015625 2.158875 L 18.439467041015625 2.582625 L 18.311217041015624 2.582625 L 18.311217041015624 2.158875 L 18.171717041015626 2.158875 L 18.171717041015626 2.056125 L 18.578967041015623 2.056125 M 18.769469604492187 2.056125 L 18.769469604492187 2.371125 Q 18.769469604492187 2.418375 18.792719604492188 2.4438750000000002 Q 18.81596960449219 2.4693750000000003 18.860969604492187 2.4693750000000003 Q 18.90596960449219 2.4693750000000003 18.929969604492186 2.4438750000000002 Q 18.953969604492187 2.418375 18.953969604492187 2.371125 L 18.953969604492187 2.056125 L 19.082219604492188 2.056125 L 19.082219604492188 2.370375 Q 19.082219604492188 2.440875 19.052219604492187 2.489625 Q 19.022219604492186 2.5383750000000003 18.97159460449219 2.5631250000000003 Q 18.92096960449219 2.5878750000000004 18.858719604492187 2.5878750000000004 Q 18.796469604492188 2.5878750000000004 18.747344604492188 2.5635000000000003 Q 18.698219604492188 2.5391250000000003 18.669719604492187 2.49 Q 18.64121960449219 2.440875 18.64121960449219 2.370375 L 18.64121960449219 2.056125 L 18.769469604492187 2.056125 M 19.440732421875 2.582625 L 19.331232421875 2.383875 L 19.300482421875 2.383875 L 19.300482421875 2.582625 L 19.172232421875 2.582625 L 19.172232421875 2.056125 L 19.387482421875 2.056125 Q 19.449732421875 2.056125 19.493607421875 2.077875 Q 19.537482421875 2.099625 19.559232421875 2.1375 Q 19.580982421875 2.1753750000000003 19.580982421875 2.2218750000000003 Q 19.580982421875 2.274375 19.551357421875 2.3156250000000003 Q 19.521732421875 2.356875 19.463982421875 2.3741250000000003 L 19.585482421875 2.582625 L 19.440732421875 2.582625 M 19.300482421875 2.2931250000000003 L 19.379982421875 2.2931250000000003 Q 19.415232421875 2.2931250000000003 19.432857421875 2.275875 Q 19.450482421875 2.2586250000000003 19.450482421875 2.227125 Q 19.450482421875 2.197125 19.432857421875 2.179875 Q 19.415232421875 2.1626250000000002 19.379982421875 2.1626250000000002 L 19.300482421875 2.1626250000000002 L 19.300482421875 2.2931250000000003 M 19.988965576171875 2.489625 L 19.792465576171875 2.489625 L 19.760965576171873 2.582625 L 19.626715576171875 2.582625 L 19.817215576171876 2.056125 L 19.965715576171874 2.056125 L 20.156215576171874 2.582625 L 20.020465576171876 2.582625 L 19.988965576171875 2.489625 M 19.955965576171874 2.390625 L 19.890715576171875 2.1978750000000002 L 19.826215576171876 2.390625 L 19.955965576171874 2.390625" fill="#401b00" fill-rule="nonzero"></path></g></g><defs><clipPath id="SvgjsClipPath79933"><path d=" M 6.648801768700229 -7.401126119052197 h 6.869861672560479 v 7.151126119052197 h -6.869861672560479 Z"></path></clipPath><clipPath id="SvgjsClipPath799287588361c-b933-406d-86ff-d58506cfd605"><path d=" M 6.648801768700229 -7.401126119052197 L 13.518663441260708 -7.401126119052197 L 13.518663441260708 -0.25 L 6.648801768700229 -0.25 Z"></path></clipPath></defs></svg>